<svg xmlns="http://www.w3.org/2000/svg" xmlns:svgjs="http://svgjs.dev/svgjs" xmlns:xlink="http://www.w3.org/1999/xlink" width="1440" height="560" preserveAspectRatio="none" version="1.1" viewBox="0 0 1440 560"><g fill="none" mask="url(&quot;#SvgjsMask1743&quot;)"><rect width="1440" height="560" x="0" y="0" fill="rgba(255, 255, 255, 1)"/><path fill="rgba(84, 180, 184, 1)" d="M 0,23 C 36,74.4 108,265.6 180,280 C 252,294.4 288,122.2 360,95 C 432,67.8 468,141.2 540,144 C 612,146.8 648,85 720,109 C 792,133 828,279 900,264 C 972,249 1008,54.8 1080,34 C 1152,13.2 1188,140.6 1260,160 C 1332,179.4 1404,136.8 1440,131L1440 560L0 560z"/><path fill="rgba(72, 50, 133, 1)" d="M 0,453 C 32,420.4 96,276.2 160,290 C 224,303.8 256,504.2 320,522 C 384,539.8 416,379.2 480,379 C 544,378.8 576,522 640,521 C 704,520 736,385 800,374 C 864,363 896,482.2 960,466 C 1024,449.8 1056,299.4 1120,293 C 1184,286.6 1216,409 1280,434 C 1344,459 1408,421.2 1440,418L1440 560L0 560z"/></g><defs><mask id="SvgjsMask1743"><rect width="1440" height="560" fill="#fff"/></mask></defs></svg>